<?xml version="1.0" encoding="utf-8"?>
<!-- Generator: Adobe Illustrator 27.0.0, SVG Export Plug-In . SVG Version: 6.00 Build 0)  -->
<svg version="1.1" id="Livello_1" xmlns="http://www.w3.org/2000/svg" xmlns:xlink="http://www.w3.org/1999/xlink" x="0px" y="0px"
	 viewBox="0 0 388.11 89.15" style="enable-background:new 0 0 388.11 89.15;" xml:space="preserve">
<style type="text/css">
	.st0{fill:#FA3A1F;}
	.st1{clip-path:url(#SVGID_00000119100921288257640900000008401657558220862115_);fill:#FA3A1F;}
	.st2{clip-path:url(#SVGID_00000140703385823588564320000003830062405405192619_);fill:#281918;}
</style>
<polygon class="st0" points="0,17.84 16.08,17.84 16.08,41.38 36.05,17.84 55.12,17.84 33.15,42.79 55.86,75.86 36.55,75.86 
	21.96,54.31 16.08,60.86 16.08,75.86 0,75.86 "/>
<polygon class="st0" points="61.33,17.84 77.41,17.84 77.41,39.56 98.05,39.56 98.05,17.84 114.13,17.84 114.13,75.86 98.05,75.86 
	98.05,53.81 77.41,53.81 77.41,75.86 61.33,75.86 "/>
<g>
	<defs>
		<rect id="SVGID_1_" x="-226.89" y="-253.07" width="841.89" height="595.28"/>
	</defs>
	<clipPath id="SVGID_00000078765543102952334060000008535534707956374437_">
		<use xlink:href="#SVGID_1_"  style="overflow:visible;"/>
	</clipPath>
	<path style="clip-path:url(#SVGID_00000078765543102952334060000008535534707956374437_);fill:#FA3A1F;" d="M125.24,17.84h27.43
		c8.87,0,15,2.32,18.9,6.3c3.4,3.32,5.14,7.79,5.14,13.51v0.17c0,8.87-4.73,14.75-11.94,17.82l13.84,20.22h-18.57l-11.69-17.57
		h-0.17h-6.88v17.57h-16.08V17.84z M151.93,45.69c5.47,0,8.62-2.65,8.62-6.88v-0.17c0-4.56-3.32-6.88-8.7-6.88h-10.53v13.92H151.93z
		"/>
	<polygon style="clip-path:url(#SVGID_00000078765543102952334060000008535534707956374437_);fill:#FA3A1F;" points="255.37,17.84 
		272.36,17.84 286.2,40.3 300.04,17.84 317.03,17.84 317.03,75.86 301.03,75.86 301.03,42.54 286.2,65.25 285.87,65.25 
		271.11,42.71 271.11,75.86 255.37,75.86 	"/>
	<path style="clip-path:url(#SVGID_00000078765543102952334060000008535534707956374437_);fill:#FA3A1F;" d="M348.2,17.43h15.5
		l24.7,58.43h-17.24l-4.23-10.36h-22.38l-4.14,10.36H323.5L348.2,17.43z M362.29,52.98l-6.47-16.49l-6.55,16.49H362.29z"/>
</g>
<g>
	<defs>
		<rect id="SVGID_00000134208933890231905930000001603345967059631252_" x="-226.89" y="-253.07" width="841.89" height="595.28"/>
	</defs>
	<clipPath id="SVGID_00000058550483271119816200000001612730880519061386_">
		<use xlink:href="#SVGID_00000134208933890231905930000001603345967059631252_"  style="overflow:visible;"/>
	</clipPath>
	<path style="clip-path:url(#SVGID_00000058550483271119816200000001612730880519061386_);fill:#281918;" d="M247.46,62.29
		c0-3.3-1.59-6.22-4.04-8.06c0.2-0.55,0.33-1.14,0.33-1.76c0-0.57-0.12-1.12-0.29-1.63c3.81-1.19,6.57-4.75,6.57-8.95
		c0-4.49-3.16-8.25-7.39-9.16c0.18-0.74,0.29-1.51,0.29-2.3c0-5.33-4.32-9.66-9.66-9.66c-1.68,0-3.25,0.43-4.62,1.18
		c0.12-0.59,0.18-1.2,0.18-1.82c0-5.1-4.13-9.23-9.23-9.23c-4.28,0-7.86,2.91-8.91,6.86c-0.4-0.03-0.81-0.06-1.22-0.06
		c-7.1,0-13.19,4.29-15.84,10.42c-0.53-4.61-4.43-8.18-9.18-8.18c-5.1,0-9.24,4.14-9.24,9.24c0,4.88,3.79,8.87,8.59,9.21
		c-0.52,1.22-0.81,2.55-0.81,3.96c0,0.71,0.08,1.4,0.22,2.07c-3.62,1.51-6.17,5.08-6.17,9.26c0,5.3,4.11,9.62,9.32,9.99
		c-0.01,0.15-0.02,0.3-0.02,0.45c0,6.19,5.02,11.21,11.21,11.21c0.21,0,0.41-0.02,0.61-0.03c-0.01,0.18-0.03,0.36-0.03,0.54
		c0,5.35,4.34,9.69,9.69,9.69c4.32,0,7.98-2.83,9.23-6.74c0.82,0.27,1.67,0.45,2.56,0.53c1.06,3.24,4.1,5.58,7.69,5.58
		c4.47,0,8.09-3.62,8.09-8.1c0-1.97-0.71-3.78-1.88-5.18c1.2,0.5,2.5,0.77,3.88,0.77C242.94,72.38,247.46,67.86,247.46,62.29"/>
	<path style="clip-path:url(#SVGID_00000058550483271119816200000001612730880519061386_);fill:#281918;" d="M200.9,16.58
		c3.38,0,6.11-2.74,6.11-6.11s-2.74-6.11-6.11-6.11s-6.11,2.74-6.11,6.11S197.52,16.58,200.9,16.58"/>
	<path style="clip-path:url(#SVGID_00000058550483271119816200000001612730880519061386_);fill:#281918;" d="M235.08,17.76
		c3.22,0,5.83-2.61,5.83-5.83c0-3.22-2.61-5.83-5.83-5.83s-5.83,2.61-5.83,5.83C229.25,15.14,231.86,17.76,235.08,17.76"/>
	<path style="clip-path:url(#SVGID_00000058550483271119816200000001612730880519061386_);fill:#281918;" d="M243.63,75.26
		c-2.41,0-4.37,1.96-4.37,4.37c0,2.41,1.96,4.37,4.37,4.37s4.37-1.96,4.37-4.37C248,77.22,246.04,75.26,243.63,75.26"/>
	<path style="clip-path:url(#SVGID_00000058550483271119816200000001612730880519061386_);fill:#281918;" d="M255.52,46.67
		c-4.25,0-7.7,3.45-7.7,7.7s3.45,7.7,7.7,7.7s7.7-3.45,7.7-7.7S259.78,46.67,255.52,46.67"/>
	<path style="clip-path:url(#SVGID_00000058550483271119816200000001612730880519061386_);fill:#281918;" d="M255.07,34.59
		c3.93,0,7.11-3.18,7.11-7.11c0-3.93-3.19-7.11-7.11-7.11s-7.11,3.18-7.11,7.11C247.96,31.4,251.14,34.59,255.07,34.59"/>
</g>
</svg>
